<?xml version="1.0" standalone="no"?>
<!DOCTYPE svg PUBLIC "-//W3C//DTD SVG 20010904//EN"
 "http://www.w3.org/TR/2001/REC-SVG-20010904/DTD/svg10.dtd">
<svg version="1.0" xmlns="http://www.w3.org/2000/svg"
 width="1155.000000pt" height="901.000000pt" viewBox="0 0 1155.000000 901.000000"
 preserveAspectRatio="xMidYMid meet">

<g transform="translate(0.000000,901.000000) scale(0.100000,-0.100000)"
fill="#000000" stroke="none">
<path d="M0 4505 l0 -4505 5775 0 5775 0 0 4505 0 4505 -5775 0 -5775 0 0
-4505z m5970 3675 c278 -93 458 -381 437 -698 -12 -176 -78 -323 -202 -448
-120 -121 -247 -176 -408 -177 -161 -1 -293 56 -414 178 -66 67 -90 100 -127
177 -196 401 6 880 413 983 78 20 218 13 301 -15z m-2692 -772 l3 -48 80 0 79
0 0 -100 0 -100 -80 0 -80 0 0 -35 0 -35 120 0 c140 0 133 7 128 -125 l-3 -80
-122 -3 -123 -3 0 -454 0 -454 123 -3 122 -3 3 -88 c3 -109 -3 -119 -72 -117
-28 1 -79 1 -113 1 l-63 -1 0 -35 0 -35 80 0 80 0 0 -100 0 -100 -79 0 -80 0
-3 -47 -3 -48 -125 0 -125 0 -3 48 -3 47 -80 0 -79 0 0 100 0 100 80 0 80 0 0
35 0 35 -120 0 c-140 0 -133 -7 -128 125 l3 80 123 3 122 3 0 454 0 454 -122
3 -123 3 0 100 0 100 123 3 122 3 0 34 0 35 -80 0 -80 0 0 100 0 99 78 3 77 3
3 35 c5 63 1 61 134 58 l123 -3 3 -47z m5292 2 l5 -45 78 -3 77 -3 0 -99 0
-100 -80 0 -80 0 0 -35 0 -34 123 -3 122 -3 0 -100 0 -100 -122 -3 -123 -3 0
-454 0 -454 123 -3 122 -3 3 -80 c5 -129 6 -127 -91 -125 -162 4 -157 5 -157
-35 l0 -35 80 0 80 0 0 -100 0 -100 -79 0 -80 0 -3 -47 -3 -48 -125 0 -125 0
-3 48 -3 47 -80 0 -79 0 0 100 0 100 80 0 80 0 0 35 c0 26 -4 35 -17 36 -10 0
-61 0 -113 -1 -52 0 -101 4 -108 8 -9 6 -12 34 -10 103 l3 94 123 3 122 3 0
454 0 454 -122 3 -123 3 0 100 0 100 123 3 122 3 0 34 0 35 -80 0 -80 0 0 100
0 99 78 3 77 3 3 35 c5 63 1 61 134 58 l123 -3 5 -45z m-3265 -1975 l0 -1340
-127 -3 -128 -3 0 996 0 995 -832 2 -833 3 0 120 0 120 830 5 830 5 0 95 0 95
-830 5 -830 5 -3 109 c-1 61 0 116 2 123 5 11 178 13 963 11 l958 -3 0 -1340z
m2900 1220 l0 -120 -833 -3 -833 -2 3 -98 3 -97 830 -5 830 -5 0 -120 0 -120
-832 -3 -833 -2 0 -995 0 -995 -130 0 -130 0 0 1338 c0 736 3 1342 7 1345 3 4
437 6 962 5 l956 -3 0 -120z m-4575 -3355 l0 -90 -172 -2 -173 -3 -3 -147 -3
-147 158 -3 158 -3 3 -87 3 -87 -158 -3 -158 -3 -3 -237 c-3 -274 8 -251 -117
-246 l-70 3 -3 573 -2 572 270 0 270 0 0 -90z m410 -480 l0 -570 -23 -5 c-12
-3 -56 -5 -97 -3 l-75 3 -3 560 c-1 308 0 566 3 573 3 8 33 12 100 12 l95 0 0
-570z m788 478 l3 -88 -101 0 -100 0 0 -479 0 -479 -27 -5 c-16 -3 -59 -4 -98
-3 l-70 1 -3 474 c-2 365 -5 477 -15 483 -6 4 -54 8 -104 8 l-93 0 0 83 c0 46
3 87 7 90 4 4 140 6 302 5 l296 -3 3 -87z m662 2 l0 -90 -170 0 -170 0 0 -150
0 -149 153 -3 152 -3 3 -87 3 -88 -156 0 -155 0 0 -240 0 -239 -32 -6 c-18 -3
-62 -5 -98 -3 l-65 3 -3 573 -2 572 270 0 270 0 0 -90z m719 72 c19 -10 43
-34 53 -53 17 -32 18 -63 16 -517 l-3 -484 -37 -34 -38 -34 -239 0 -239 0 -31
26 c-17 14 -35 42 -41 62 -8 25 -10 191 -8 499 3 449 4 462 24 490 42 58 68
63 299 63 185 0 214 -2 244 -18z m750 0 c19 -9 44 -30 55 -45 20 -26 21 -44
24 -250 4 -246 -2 -281 -49 -321 -25 -21 -41 -26 -85 -26 -30 0 -54 -4 -54 -9
0 -4 32 -75 71 -157 39 -82 88 -186 110 -232 l38 -83 -110 3 -111 3 -111 234
c-62 129 -118 236 -124 239 -10 3 -13 -49 -13 -236 0 -210 -2 -241 -16 -246
-20 -8 -132 -8 -161 0 l-23 6 0 569 0 569 263 0 c230 0 266 -2 296 -18z m801
-72 l0 -90 -194 0 c-151 0 -196 -3 -205 -14 -8 -9 -11 -120 -9 -387 l3 -374
95 -6 c52 -3 106 -3 120 1 l25 6 0 145 0 144 -63 3 -63 3 3 87 3 87 158 3 157
3 0 -331 0 -330 -84 0 c-77 0 -84 2 -89 21 l-6 21 -27 -21 c-25 -19 -39 -21
-186 -21 -131 0 -163 3 -184 16 -54 36 -54 34 -54 551 0 462 1 479 20 511 35
57 57 61 333 62 l247 0 0 -90z m698 -2 l3 -88 -173 -2 -173 -3 -3 -147 -3
-148 156 0 155 0 0 -90 0 -89 -152 -3 -153 -3 -3 -147 -3 -148 188 -2 188 -3
3 -84 c2 -58 -1 -87 -9 -92 -15 -9 -531 -12 -553 -3 -14 5 -16 68 -16 568 0
310 3 566 7 569 4 4 126 6 272 5 l266 -3 3 -87z m-5029 -1459 c56 -31 74 -69
79 -166 l5 -83 -52 0 -51 0 0 75 c0 86 -14 109 -74 121 -108 20 -173 -52 -137
-149 6 -14 75 -90 154 -169 152 -151 167 -175 167 -265 0 -58 -37 -123 -85
-147 -57 -30 -205 -30 -254 -1 -61 36 -76 66 -79 166 l-4 89 46 0 46 0 0 -71
c0 -65 2 -73 29 -100 25 -25 37 -29 83 -29 95 0 134 40 122 122 -6 39 -21 57
-150 188 -85 86 -149 160 -159 182 -21 51 -19 135 4 178 19 37 63 68 114 81
52 13 154 2 196 -22z m973 4 c17 -10 40 -31 52 -46 20 -27 21 -40 24 -388 l3
-359 -46 0 -45 0 0 330 c0 362 -4 393 -54 406 -47 11 -98 -5 -138 -46 l-38
-38 0 -326 0 -326 -50 0 -50 0 0 400 0 400 24 0 c18 0 27 -8 35 -30 12 -36 21
-37 47 -9 10 12 37 30 59 41 48 23 130 19 177 -9z m619 -5 c56 -31 79 -84 79
-181 l0 -77 -45 0 -45 0 0 64 c0 82 -11 111 -51 132 -44 22 -123 15 -152 -15
-22 -21 -22 -27 -22 -312 l0 -291 28 -24 c22 -19 39 -24 82 -24 77 0 106 27
113 103 l4 57 46 0 45 0 -5 -68 c-6 -78 -23 -111 -77 -144 -51 -32 -187 -33
-245 -2 -82 42 -81 37 -84 379 -3 290 -2 306 18 344 20 41 57 67 115 82 51 14
152 2 196 -23z m599 2 c68 -35 80 -74 80 -262 l0 -157 -157 -3 -158 -3 0 -128
c0 -129 0 -129 28 -153 22 -19 39 -24 83 -24 48 0 60 4 85 29 24 25 29 37 29
80 l0 51 46 0 46 0 -4 -70 c-7 -121 -60 -165 -198 -165 -108 0 -155 21 -187
85 -22 43 -23 53 -23 330 0 258 2 289 19 327 20 42 55 68 116 84 48 13 150 2
195 -21z m913 -2 c58 -32 77 -74 77 -172 0 -97 -12 -121 -179 -361 l-118 -170
148 -3 149 -3 0 -39 0 -40 -210 0 -210 0 0 38 c0 32 22 67 146 242 177 250
184 262 184 338 0 95 -50 135 -146 118 -60 -12 -74 -35 -74 -121 l0 -75 -51 0
-52 0 6 87 c7 92 18 118 69 156 57 43 187 45 261 5z m620 0 c75 -41 77 -51 77
-394 0 -296 0 -302 -23 -334 -39 -58 -79 -75 -182 -75 -114 0 -162 22 -194 88
-20 41 -21 59 -21 325 0 304 3 324 53 370 60 56 206 66 290 20z m625 4 c62
-32 77 -62 80 -162 4 -83 2 -92 -27 -147 -18 -32 -85 -134 -150 -228 l-118
-170 146 -5 146 -5 3 -37 3 -38 -210 0 -211 0 0 36 c0 30 24 70 149 248 81
116 156 225 165 243 24 47 22 143 -4 176 -36 46 -139 48 -180 5 -16 -18 -20
-36 -20 -95 l0 -73 -50 0 -50 0 0 50 c0 88 18 146 56 179 19 17 47 33 62 37
15 3 32 8 37 10 23 9 141 -7 173 -24z m-3950 -394 l2 -398 -50 0 -50 0 0 401
0 400 48 -3 47 -3 3 -397z m4582 132 l0 -270 30 0 c28 0 30 -2 30 -39 0 -36
-3 -40 -27 -43 -28 -3 -28 -3 -31 -90 l-3 -88 -44 0 -45 0 0 90 0 90 -162 2
-163 3 -3 33 c-3 26 14 61 89 185 51 83 126 207 166 275 l74 122 45 0 44 0 0
-270z"/>
<path d="M5695 7938 c-228 -82 -328 -388 -205 -628 33 -64 102 -133 167 -166
49 -25 69 -29 138 -29 64 0 90 5 127 23 145 71 230 220 230 400 -1 89 -20 159
-67 237 -44 73 -82 107 -160 145 -50 25 -72 30 -130 29 -38 0 -83 -5 -100 -11z"/>
<path d="M5853 3204 c-10 -4 -13 -92 -13 -389 l0 -383 103 -4 c56 -2 110 -2
120 0 16 4 17 29 15 391 l-3 386 -105 2 c-58 1 -111 -1 -117 -3z"/>
<path d="M6600 3060 l0 -150 120 0 120 0 0 144 c0 122 -2 145 -16 150 -9 3
-63 6 -120 6 l-104 0 0 -150z"/>
<path d="M5427 1775 c-39 -22 -47 -51 -47 -171 l0 -104 116 0 116 0 -4 120
c-3 107 -5 122 -25 141 -29 29 -115 36 -156 14z"/>
<path d="M6953 1776 c-50 -23 -55 -55 -51 -353 3 -254 4 -263 25 -284 14 -15
38 -23 72 -27 63 -6 95 2 121 30 19 21 20 34 20 304 0 282 0 283 -23 310 -19
22 -34 28 -78 31 -33 2 -66 -2 -86 -11z"/>
<path d="M8198 1490 l-107 -180 114 0 115 0 0 180 c0 99 -3 180 -7 180 -5 0
-56 -81 -115 -180z"/>
</g>
</svg>
